<svg xmlns="http://www.w3.org/2000/svg" xmlns:xlink="http://www.w3.org/1999/xlink" width="500" zoomAndPan="magnify" viewBox="0 0 375 374.999991" height="500" preserveAspectRatio="xMidYMid meet" version="1.0"><path fill="#000000" d="M 102.945312 59.175781 L 59.007812 59.175781 L 59.007812 103.117188 L 102.945312 103.117188 L 102.945312 59.175781 " fill-opacity="1" fill-rule="nonzero"/><path fill="#000000" d="M 114.203125 114.375 L 47.75 114.375 L 47.75 47.921875 L 114.203125 47.921875 Z M 125.460938 36.660156 L 36.488281 36.660156 L 36.488281 125.632812 L 125.460938 125.632812 L 125.460938 36.660156 " fill-opacity="1" fill-rule="nonzero"/><path fill="#000000" d="M 315.589844 59.175781 L 271.652344 59.175781 L 271.652344 103.117188 L 315.589844 103.117188 L 315.589844 59.175781 " fill-opacity="1" fill-rule="nonzero"/><path fill="#000000" d="M 326.851562 114.375 L 260.394531 114.375 L 260.394531 47.921875 L 326.851562 47.921875 Z M 338.105469 36.660156 L 249.132812 36.660156 L 249.132812 125.632812 L 338.105469 125.632812 L 338.105469 36.660156 " fill-opacity="1" fill-rule="nonzero"/><path fill="#000000" d="M 59.007812 315.761719 L 102.945312 315.761719 L 102.945312 271.820312 L 59.007812 271.820312 L 59.007812 315.761719 " fill-opacity="1" fill-rule="nonzero"/><path fill="#000000" d="M 47.75 260.5625 L 114.203125 260.5625 L 114.203125 327.019531 L 47.75 327.019531 Z M 36.488281 338.277344 L 125.460938 338.277344 L 125.460938 249.304688 L 36.488281 249.304688 L 36.488281 338.277344 " fill-opacity="1" fill-rule="nonzero"/><path fill="#000000" d="M 170.566406 70.394531 L 170.566406 80.59375 L 181.824219 80.59375 L 181.824219 70.394531 L 192.90625 70.394531 L 192.90625 92.890625 L 181.679688 92.890625 L 181.679688 92.914062 L 170.441406 92.914062 L 170.441406 103.113281 L 159.203125 103.113281 L 159.203125 80.59375 L 147.945312 80.59375 L 147.945312 70.394531 Z M 204.144531 114.375 L 181.679688 114.375 L 181.679688 104.148438 L 192.917969 104.148438 L 192.917969 92.914062 L 204.144531 92.914062 Z M 136.691406 148.152344 L 102.945312 148.152344 L 102.945312 159.414062 L 136.691406 159.414062 L 136.691406 170.671875 L 147.929688 170.671875 L 147.929688 204.355469 L 159.191406 204.355469 L 159.191406 159.414062 L 181.679688 159.414062 L 181.679688 148.152344 L 147.945312 148.152344 L 147.945312 103.117188 L 159.203125 103.117188 L 159.203125 114.375 L 170.441406 114.375 L 170.441406 125.632812 L 159.203125 125.632812 L 159.203125 148.152344 L 170.441406 148.152344 L 170.441406 125.632812 L 181.679688 125.632812 L 181.679688 125.613281 L 204.144531 125.613281 L 204.144531 148.175781 L 192.917969 148.175781 L 192.917969 159.410156 L 215.605469 159.410156 L 215.605469 180.871094 L 226.84375 180.871094 L 226.84375 148.152344 L 215.605469 148.152344 L 215.605469 148.175781 L 215.40625 148.175781 L 215.40625 81.652344 L 226.65625 81.652344 L 226.65625 92.890625 L 237.914062 92.890625 L 237.914062 70.417969 L 236.929688 70.417969 L 236.929688 70.394531 L 215.40625 70.394531 L 215.40625 59.179688 L 147.945312 59.179688 L 147.945312 47.921875 L 204.15625 47.921875 L 204.15625 36.660156 L 136.730469 36.660156 L 136.730469 47.917969 L 136.691406 47.917969 L 136.691406 148.152344 " fill-opacity="1" fill-rule="nonzero"/><path fill="#000000" d="M 237.902344 59.175781 L 237.902344 36.660156 L 226.667969 36.660156 L 226.667969 47.941406 L 215.40625 47.941406 L 215.40625 59.175781 L 237.902344 59.175781 " fill-opacity="1" fill-rule="nonzero"/><path fill="#000000" d="M 47.75 170.675781 L 36.488281 170.675781 L 36.488281 181.933594 L 47.75 181.933594 L 47.75 204.355469 L 80.449219 204.355469 L 80.449219 215.617188 L 47.75 215.617188 L 47.75 226.878906 L 81.503906 226.878906 L 81.503906 238.140625 L 114.203125 238.140625 L 114.203125 226.878906 L 91.6875 226.878906 L 91.6875 193.097656 L 58.988281 193.097656 L 58.988281 181.933594 L 91.6875 181.933594 L 91.6875 170.675781 L 102.945312 170.675781 L 102.945312 159.414062 L 47.75 159.414062 L 47.75 170.675781 " fill-opacity="1" fill-rule="nonzero"/><path fill="#000000" d="M 47.726562 148.152344 L 36.488281 148.152344 L 36.488281 159.414062 L 47.726562 159.414062 L 47.726562 148.152344 " fill-opacity="1" fill-rule="nonzero"/><path fill="#000000" d="M 125.460938 226.878906 L 136.699219 226.878906 L 136.699219 204.355469 L 114.226562 204.355469 L 114.226562 215.617188 L 125.460938 215.617188 L 125.460938 226.878906 " fill-opacity="1" fill-rule="nonzero"/><path fill="#000000" d="M 47.75 136.890625 L 47.75 148.152344 L 58.988281 148.152344 L 58.988281 136.890625 L 47.75 136.890625 " fill-opacity="1" fill-rule="nonzero"/><path fill="#000000" d="M 91.6875 136.890625 L 91.6875 148.152344 L 102.925781 148.152344 L 102.925781 136.890625 L 91.6875 136.890625 " fill-opacity="1" fill-rule="nonzero"/><path fill="#000000" d="M 192.917969 136.890625 L 181.679688 136.890625 L 181.679688 148.152344 L 192.917969 148.152344 L 192.917969 136.890625 " fill-opacity="1" fill-rule="nonzero"/><path fill="#000000" d="M 215.605469 180.871094 L 204.34375 180.871094 L 204.34375 226.878906 L 215.605469 226.878906 L 215.605469 180.871094 " fill-opacity="1" fill-rule="nonzero"/><path fill="#000000" d="M 170.425781 215.617188 L 170.425781 204.410156 L 181.632812 204.410156 L 181.632812 193.152344 L 170.394531 193.152344 L 170.394531 204.355469 L 159.191406 204.355469 L 159.191406 215.617188 L 170.425781 215.617188 " fill-opacity="1" fill-rule="nonzero"/><path fill="#000000" d="M 170.429688 170.660156 L 170.429688 181.917969 L 181.667969 181.917969 L 181.667969 193.179688 L 192.90625 193.179688 L 192.90625 170.660156 L 170.429688 170.660156 " fill-opacity="1" fill-rule="nonzero"/><path fill="#000000" d="M 136.699219 181.9375 L 114.21875 181.9375 L 114.21875 170.675781 L 102.980469 170.675781 L 102.980469 193.199219 L 136.699219 193.199219 L 136.699219 181.9375 " fill-opacity="1" fill-rule="nonzero"/><path fill="#000000" d="M 102.925781 215.617188 L 102.925781 204.355469 L 91.6875 204.355469 L 91.6875 215.617188 L 102.925781 215.617188 " fill-opacity="1" fill-rule="nonzero"/><path fill="#000000" d="M 270.78125 192.132812 L 270.78125 203.390625 L 282.019531 203.390625 L 282.019531 192.132812 L 293.253906 192.132812 L 293.253906 180.871094 L 282.019531 180.871094 L 282.019531 169.609375 L 270.78125 169.609375 L 270.78125 180.871094 L 282.019531 180.871094 L 282.019531 192.132812 L 270.78125 192.132812 " fill-opacity="1" fill-rule="nonzero"/><path fill="#000000" d="M 237.984375 271.832031 L 226.726562 271.832031 L 226.726562 294.304688 L 227.710938 294.304688 L 227.710938 294.328125 L 249.234375 294.328125 L 249.234375 283.066406 L 237.984375 283.066406 L 237.984375 271.832031 " fill-opacity="1" fill-rule="nonzero"/><path fill="#000000" d="M 226.859375 226.878906 L 215.621094 226.878906 L 215.621094 238.140625 L 226.859375 238.140625 L 226.859375 249.398438 L 238.097656 249.398438 L 238.097656 226.878906 L 226.859375 226.878906 " fill-opacity="1" fill-rule="nonzero"/><path fill="#000000" d="M 192.902344 283.070312 L 181.667969 283.070312 L 181.667969 294.332031 L 204.140625 294.332031 L 204.140625 293.347656 L 204.164062 293.347656 L 204.164062 271.824219 L 192.902344 271.824219 L 192.902344 283.070312 " fill-opacity="1" fill-rule="nonzero"/><path fill="#000000" d="M 170.441406 338.324219 L 204.195312 338.324219 L 204.195312 327.0625 L 170.441406 327.0625 L 170.441406 338.324219 " fill-opacity="1" fill-rule="nonzero"/><path fill="#000000" d="M 159.191406 315.761719 L 159.191406 315.808594 L 147.929688 315.808594 L 147.929688 327.054688 L 136.691406 327.054688 L 136.691406 338.316406 L 159.167969 338.316406 L 159.167969 337.332031 L 159.191406 337.332031 L 159.191406 327.019531 L 170.425781 327.019531 L 170.425781 304.503906 L 159.191406 304.503906 L 159.191406 315.761719 " fill-opacity="1" fill-rule="nonzero"/><path fill="#000000" d="M 136.691406 304.546875 L 136.691406 315.808594 L 147.929688 315.808594 L 147.929688 304.546875 L 136.691406 304.546875 " fill-opacity="1" fill-rule="nonzero"/><path fill="#000000" d="M 226.859375 125.621094 L 238.097656 125.621094 L 238.097656 104.148438 L 226.859375 104.148438 L 226.859375 125.621094 " fill-opacity="1" fill-rule="nonzero"/><path fill="#000000" d="M 192.878906 204.394531 L 181.644531 204.394531 L 181.644531 215.652344 L 192.878906 215.652344 L 192.878906 204.394531 " fill-opacity="1" fill-rule="nonzero"/><path fill="#000000" d="M 338.121094 270.859375 L 326.863281 270.859375 L 326.863281 248.429688 L 294.160156 248.429688 L 294.160156 237.171875 L 326.863281 237.171875 L 326.863281 225.910156 L 293.300781 225.910156 L 293.300781 214.652344 L 304.539062 214.652344 L 304.539062 203.390625 L 293.300781 203.390625 L 293.300781 214.652344 L 270.78125 214.652344 L 270.78125 180.871094 L 259.871094 180.871094 L 259.871094 170.671875 L 248.636719 170.671875 L 248.636719 180.871094 L 226.84375 180.871094 L 226.84375 192.132812 L 259.542969 192.132812 L 259.542969 203.390625 L 226.84375 203.390625 L 226.84375 214.652344 L 238.097656 214.652344 L 238.097656 226.878906 L 249.335938 226.878906 L 249.335938 214.652344 L 260.597656 214.652344 L 260.597656 225.910156 L 282.921875 225.910156 L 282.921875 259.691406 L 315.625 259.691406 L 315.625 270.859375 L 282.921875 270.859375 L 282.921875 282.117188 L 260.40625 282.117188 L 260.40625 293.378906 L 315.601562 293.378906 L 315.601562 282.117188 L 338.121094 282.117188 L 338.121094 270.859375 " fill-opacity="1" fill-rule="nonzero"/><path fill="#000000" d="M 226.691406 326.984375 L 215.5 326.984375 L 215.5 316.832031 L 216.421875 316.832031 L 216.421875 316.855469 L 237.746094 316.855469 L 237.746094 326.984375 Z M 237.945312 305.59375 L 226.699219 305.59375 L 226.699219 294.355469 L 215.5 294.355469 L 215.5 294.34375 L 204.261719 294.34375 L 204.261719 305.605469 L 215.4375 305.605469 L 215.4375 315.757812 L 204.261719 315.757812 L 204.261719 327.019531 L 215.488281 327.019531 L 215.488281 338.242188 L 237.929688 338.242188 L 237.929688 327.191406 L 248.984375 327.191406 L 248.984375 315.929688 L 237.945312 315.929688 L 237.945312 305.59375 " fill-opacity="1" fill-rule="nonzero"/><path fill="#000000" d="M 192.9375 315.792969 L 192.9375 304.535156 L 181.699219 304.535156 L 181.699219 315.792969 L 192.9375 315.792969 " fill-opacity="1" fill-rule="nonzero"/><path fill="#000000" d="M 293.253906 327.054688 L 282.019531 327.054688 L 282.019531 338.316406 L 304.492188 338.316406 L 304.492188 337.332031 L 304.515625 337.332031 L 304.515625 315.808594 L 293.253906 315.808594 L 293.253906 327.054688 " fill-opacity="1" fill-rule="nonzero"/><path fill="#000000" d="M 327.027344 315.792969 L 338.265625 315.792969 L 338.265625 304.535156 L 327.027344 304.535156 L 327.027344 315.792969 " fill-opacity="1" fill-rule="nonzero"/><path fill="#000000" d="M 260.40625 315.792969 L 271.664062 315.792969 L 271.664062 304.535156 L 260.40625 304.535156 L 260.40625 315.792969 " fill-opacity="1" fill-rule="nonzero"/><path fill="#000000" d="M 327.367188 148.140625 L 304.855469 148.140625 L 304.855469 136.890625 L 293.621094 136.890625 L 293.621094 148.140625 L 272.007812 148.140625 L 272.007812 136.890625 L 260.769531 136.890625 L 260.769531 136.902344 L 226.84375 136.902344 L 226.84375 148.140625 L 248.636719 148.140625 L 248.636719 159.402344 L 304.539062 159.402344 L 304.539062 169.609375 L 315.773438 169.609375 L 315.773438 159.402344 L 327.367188 159.402344 L 327.367188 148.140625 " fill-opacity="1" fill-rule="nonzero"/><path fill="#000000" d="M 327.367188 136.890625 L 327.367188 148.152344 L 338.605469 148.152344 L 338.605469 136.890625 L 327.367188 136.890625 " fill-opacity="1" fill-rule="nonzero"/><path fill="#000000" d="M 304.539062 214.652344 L 315.773438 214.652344 L 315.773438 203.390625 L 327.011719 203.390625 L 327.011719 192.132812 L 315.773438 192.132812 L 315.773438 203.390625 L 304.539062 203.390625 L 304.539062 214.652344 " fill-opacity="1" fill-rule="nonzero"/><path fill="#000000" d="M 315.773438 180.871094 L 304.539062 180.871094 L 304.539062 192.132812 L 315.773438 192.132812 L 315.773438 180.871094 " fill-opacity="1" fill-rule="nonzero"/><path fill="#000000" d="M 237.398438 159.410156 L 237.398438 170.671875 L 248.636719 170.671875 L 248.636719 159.410156 L 237.398438 159.410156 " fill-opacity="1" fill-rule="nonzero"/><path fill="#000000" d="M 271.667969 249.398438 L 271.667969 238.164062 L 249.144531 238.164062 L 249.144531 260.5625 L 226.828125 260.5625 L 226.828125 249.398438 L 215.589844 249.398438 L 215.589844 260.5625 L 204.164062 260.5625 L 204.164062 238.140625 L 192.902344 238.140625 L 192.902344 249.398438 L 170.425781 249.398438 L 170.425781 238.140625 L 181.667969 238.140625 L 181.667969 226.878906 L 159.1875 226.878906 L 159.1875 215.617188 L 147.949219 215.617188 L 147.949219 238.140625 L 159.191406 238.140625 L 159.191406 249.398438 L 136.738281 249.398438 L 136.738281 260.660156 L 147.941406 260.660156 L 147.941406 271.824219 L 159.179688 271.824219 L 159.179688 260.660156 L 170.394531 260.660156 L 170.394531 283.082031 L 147.941406 283.082031 L 147.941406 271.824219 L 136.703125 271.824219 L 136.703125 294.34375 L 170.417969 294.34375 L 170.417969 283.082031 L 181.632812 283.082031 L 181.632812 260.660156 L 204.164062 260.660156 L 204.164062 271.824219 L 249.21875 271.824219 L 249.21875 260.636719 L 260.40625 260.636719 L 260.40625 271.824219 L 271.664062 271.824219 L 271.664062 260.5625 L 260.40625 260.5625 L 260.40625 249.398438 L 271.667969 249.398438 " fill-opacity="1" fill-rule="nonzero"/><path fill="#17a6d7" d="M 60.957031 0 L 29.140625 0 C 13.089844 0 0.078125 13.011719 0.078125 29.066406 L 0.078125 60.882812 L 11.3125 60.882812 L 11.3125 32.609375 C 11.3125 20.804688 20.882812 11.238281 32.683594 11.238281 L 60.957031 11.238281 L 60.957031 0 " fill-opacity="1" fill-rule="nonzero"/><path fill="#17a6d7" d="M 314.042969 375 L 345.859375 375 C 361.910156 375 374.921875 361.984375 374.921875 345.933594 L 374.921875 314.113281 L 363.6875 314.113281 L 363.6875 342.390625 C 363.6875 354.191406 354.117188 363.761719 342.316406 363.761719 L 314.042969 363.761719 L 314.042969 375 " fill-opacity="1" fill-rule="nonzero"/><path fill="#17a6d7" d="M 0 314.042969 L 0 345.859375 C 0 361.910156 13.015625 374.921875 29.066406 374.921875 L 60.886719 374.921875 L 60.886719 363.6875 L 32.609375 363.6875 C 20.808594 363.6875 11.238281 354.117188 11.238281 342.3125 L 11.238281 314.042969 L 0 314.042969 " fill-opacity="1" fill-rule="nonzero"/><path fill="#17a6d7" d="M 375 60.957031 L 375 29.140625 C 375 13.089844 361.984375 0.0742188 345.933594 0.0742188 L 314.113281 0.0742188 L 314.113281 11.3125 L 342.390625 11.3125 C 354.191406 11.3125 363.761719 20.878906 363.761719 32.683594 L 363.761719 60.957031 L 375 60.957031 " fill-opacity="1" fill-rule="nonzero"/></svg>